<svg xmlns="http://www.w3.org/2000/svg" viewBox="0 -0.5 40 79" shape-rendering="crispEdges">
<metadata>Made with Pixels to Svg https://codepen.io/shshaw/pen/XbxvNj</metadata>
<path stroke="#000000" d="M3 0h2M35 0h2M3 1h3M34 1h3M2 2h2M5 2h3M32 2h2M36 2h2M2 3h1M7 3h2M31 3h2M37 3h1M2 4h1M8 4h2M30 4h2M37 4h1M2 5h1M9 5h2M29 5h2M37 5h1M2 6h1M10 6h2M28 6h2M37 6h1M2 7h1M11 7h2M27 7h2M37 7h1M2 8h1M12 8h2M26 8h2M37 8h1M1 9h2M13 9h2M25 9h2M37 9h2M1 10h1M14 10h2M24 10h2M38 10h1M1 11h1M15 11h2M23 11h2M38 11h1M1 12h1M16 12h1M23 12h1M38 12h1M1 13h1M16 13h2M22 13h2M38 13h1M1 14h1M17 14h1M22 14h1M38 14h1M1 15h1M17 15h2M21 15h2M38 15h1M0 16h40M0 17h1M39 17h1M0 18h1M18 18h5M39 18h1M0 19h1M12 19h2M18 19h1M22 19h1M39 19h1M0 20h1M13 20h2M18 20h5M39 20h1M0 21h1M18 21h1M22 21h1M39 21h1M0 22h1M12 22h2M18 22h5M39 22h1M0 23h1M13 23h2M39 23h1M0 24h1M16 24h10M39 24h1M0 25h1M14 25h1M16 25h1M19 25h1M22 25h1M25 25h1M39 25h1M0 26h1M13 26h2M16 26h1M19 26h1M22 26h1M25 26h1M39 26h1M0 27h1M13 27h1M16 27h10M39 27h1M0 28h1M12 28h2M39 28h1M0 29h1M12 29h1M17 29h6M39 29h1M0 30h1M12 30h1M21 30h2M39 30h1M0 31h1M18 31h1M20 31h2M39 31h1M0 32h1M19 32h2M39 32h1M0 33h1M19 33h4M39 33h1M0 34h1M18 34h2M22 34h4M39 34h1M0 35h1M17 35h1M39 35h1M0 36h1M39 36h1M0 37h1M13 37h13M39 37h1M0 38h1M19 38h1M39 38h1M0 39h1M13 39h1M16 39h7M25 39h1M39 39h1M0 40h1M13 40h1M16 40h1M19 40h1M22 40h1M25 40h1M39 40h1M0 41h1M13 41h1M16 41h1M19 41h1M22 41h1M25 41h1M39 41h1M0 42h1M13 42h1M16 42h7M25 42h1M39 42h1M0 43h1M13 43h1M16 43h1M19 43h1M22 43h1M25 43h1M39 43h1M0 44h1M13 44h1M16 44h1M19 44h1M22 44h1M25 44h1M39 44h1M0 45h1M13 45h1M16 45h7M25 45h1M39 45h1M0 46h1M13 46h1M25 46h1M39 46h1M0 47h1M13 47h13M39 47h1M0 48h1M39 48h1M0 49h1M39 49h1M0 50h1M39 50h1M0 51h1M13 51h12M39 51h1M0 52h1M18 52h2M39 52h1M0 53h1M17 53h2M21 53h1M24 53h1M39 53h1M0 54h1M16 54h2M21 54h2M24 54h2M39 54h1M0 55h1M16 55h1M22 55h1M25 55h1M39 55h1M0 56h1M15 56h2M39 56h1M0 57h1M15 57h2M39 57h1M0 58h1M16 58h1M39 58h1M0 59h1M16 59h2M24 59h2M39 59h1M0 60h1M17 60h2M22 60h3M39 60h1M0 61h1M18 61h5M39 61h1M0 62h1M39 62h1M0 63h1M20 63h1M39 63h1M0 64h1M15 64h10M39 64h1M0 65h1M20 65h1M39 65h1M0 66h1M20 66h1M39 66h1M0 67h1M17 67h2M20 67h1M39 67h1M0 68h1M16 68h1M19 68h2M39 68h1M0 69h1M16 69h1M19 69h2M39 69h1M0 70h1M17 70h2M20 70h1M39 70h1M0 71h1M20 71h1M39 71h1M0 72h1M20 72h1M39 72h1M0 73h1M19 73h2M39 73h1M0 74h1M18 74h2M39 74h1M0 75h1M16 75h3M39 75h1M0 76h1M39 76h1M0 77h1M39 77h1M0 78h40" />
<path stroke="#FFFFFF" d="M4 2h1M34 2h2M3 3h4M33 3h4M3 4h5M32 4h5M3 5h6M31 5h6M3 6h7M30 6h7M3 7h8M29 7h8M3 8h9M28 8h9M3 9h10M27 9h10M2 10h12M26 10h12M2 11h13M25 11h13M2 12h14M24 12h14M2 13h14M24 13h14M2 14h15M23 14h15M2 15h15M23 15h15M1 17h38M1 18h17M23 18h16M1 19h11M14 19h4M19 19h3M23 19h16M1 20h12M15 20h3M23 20h16M1 21h17M19 21h3M23 21h16M1 22h11M14 22h4M23 22h16M1 23h12M15 23h24M1 24h15M26 24h13M1 25h13M15 25h1M17 25h2M20 25h2M23 25h2M26 25h13M1 26h12M15 26h1M17 26h2M20 26h2M23 26h2M26 26h13M1 27h12M14 27h2M26 27h13M1 28h11M14 28h25M1 29h11M13 29h4M23 29h16M1 30h11M13 30h8M23 30h16M1 31h17M19 31h1M22 31h17M1 32h18M21 32h18M1 33h18M23 33h16M1 34h17M20 34h2M26 34h13M1 35h16M18 35h21M1 36h38M1 37h12M26 37h13M1 38h18M20 38h19M1 39h12M14 39h2M23 39h2M26 39h13M1 40h12M14 40h2M17 40h2M20 40h2M23 40h2M26 40h13M1 41h12M14 41h2M17 41h2M20 41h2M23 41h2M26 41h13M1 42h12M14 42h2M23 42h2M26 42h13M1 43h12M14 43h2M17 43h2M20 43h2M23 43h2M26 43h13M1 44h12M14 44h2M17 44h2M20 44h2M23 44h2M26 44h13M1 45h12M14 45h2M23 45h2M26 45h13M1 46h12M14 46h11M26 46h13M1 47h12M26 47h13M1 48h38M1 49h38M1 50h38M1 51h12M25 51h14M1 52h17M20 52h19M1 53h16M19 53h2M22 53h2M25 53h14M1 54h15M18 54h3M23 54h1M26 54h13M1 55h15M17 55h5M23 55h2M26 55h13M1 56h14M17 56h22M1 57h14M17 57h22M1 58h15M17 58h22M1 59h15M18 59h6M26 59h13M1 60h16M19 60h3M25 60h14M1 61h17M23 61h16M1 62h38M1 63h19M21 63h18M1 64h14M25 64h14M1 65h19M21 65h18M1 66h19M21 66h18M1 67h16M19 67h1M21 67h18M1 68h15M17 68h2M21 68h18M1 69h15M17 69h2M21 69h18M1 70h16M19 70h1M21 70h18M1 71h19M21 71h18M1 72h19M21 72h18M1 73h18M21 73h18M1 74h17M20 74h19M1 75h15M19 75h20M1 76h38M1 77h38" />
</svg>