<svg xmlns="http://www.w3.org/2000/svg" viewBox="0 -0.5 41 27" shape-rendering="crispEdges">
<metadata>Made with Pixels to Svg https://codepen.io/shshaw/pen/XbxvNj</metadata>
<path stroke="#000000" d="M17 0h8M14 1h4M24 1h2M13 2h2M19 2h4M26 2h2M12 3h2M16 3h9M27 3h7M11 4h2M15 4h2M25 4h1M28 4h1M34 4h1M11 5h1M14 5h2M26 5h1M28 5h2M34 5h1M10 6h2M13 6h1M15 6h1M27 6h1M29 6h2M34 6h1M10 7h1M13 7h1M15 7h1M18 7h6M27 7h1M30 7h1M34 7h1M10 8h1M12 8h1M15 8h1M17 8h2M23 8h2M27 8h2M30 8h1M34 8h1M37 8h2M10 9h1M12 9h1M15 9h3M20 9h2M24 9h1M26 9h1M29 9h2M34 9h1M36 9h1M39 9h1M10 10h1M12 10h1M15 10h2M19 10h1M22 10h1M24 10h1M26 10h1M30 10h1M34 10h2M39 10h1M9 11h2M12 11h1M14 11h2M18 11h1M21 11h1M24 11h1M26 11h1M31 11h4M39 11h1M9 12h1M11 12h1M14 12h1M17 12h1M21 12h1M23 12h2M39 12h1M9 13h1M11 13h1M13 13h2M16 13h1M21 13h1M23 13h1M25 13h1M40 13h1M9 14h1M11 14h1M13 14h1M16 14h1M20 14h1M23 14h1M25 14h1M30 14h1M37 14h1M40 14h1M8 15h2M11 15h1M13 15h1M15 15h1M19 15h1M22 15h1M25 15h1M29 15h2M34 15h1M36 15h2M40 15h1M7 16h2M11 16h1M13 16h1M15 16h4M21 16h1M23 16h3M40 16h1M5 17h3M10 17h1M13 17h2M20 17h2M25 17h1M30 17h1M33 17h1M36 17h1M40 17h1M4 18h2M9 18h1M14 18h7M22 18h5M30 18h7M39 18h1M1 19h4M7 19h2M14 19h1M27 19h1M38 19h1M0 20h2M6 20h1M13 20h1M15 20h2M28 20h10M0 21h1M5 21h1M12 21h1M16 21h18M35 21h1M0 22h1M3 22h1M5 22h1M12 22h1M15 22h1M17 22h1M20 22h1M26 22h1M29 22h1M31 22h2M35 22h1M0 23h1M2 23h2M5 23h1M12 23h3M17 23h3M26 23h3M32 23h4M0 24h3M5 24h1M2 25h1M5 25h1M3 26h3" />
<path stroke="#828282" d="M18 1h6M15 2h4M23 2h3M14 3h2M25 3h2M13 4h2M26 4h2M12 5h2M27 5h1M12 6h1M28 6h1M11 7h2M28 7h2M11 8h1M19 8h4M29 8h1M11 9h1M18 9h2M22 9h2M27 9h2M37 9h2M11 10h1M17 10h2M23 10h1M27 10h3M36 10h3M11 11h1M16 11h2M22 11h2M27 11h4M35 11h4M10 12h1M15 12h2M22 12h1M27 12h12M10 13h1M15 13h1M22 13h1M26 13h14M10 14h1M14 14h2M21 14h2M26 14h3M31 14h5M38 14h2M10 15h1M14 15h1M20 15h2M26 15h3M31 15h3M35 15h1M38 15h2M9 16h2M14 16h1M19 16h2M22 16h1M26 16h1M29 16h9M8 17h2M15 17h5M22 17h3M26 17h1M29 17h1M31 17h2M34 17h2M37 17h1M6 18h3M27 18h3M37 18h2M5 19h2M28 19h10M2 20h4M14 20h1M1 21h4M13 21h3M34 21h1M1 22h2M4 22h1M13 22h2M18 22h2M27 22h2M33 22h2M1 23h1M4 23h1M3 24h2M3 25h2" />
<path stroke="#aba185" d="M17 4h8M29 4h5M16 5h10M30 5h4M16 6h11M31 6h3M16 7h2M24 7h3M31 7h3M16 8h1M25 8h2M31 8h3M25 9h1M31 9h3M20 10h2M25 10h1M31 10h3M19 11h2M25 11h1M18 12h3M17 13h4M24 13h1M17 14h3M24 14h1M16 15h3M23 15h2M27 16h2M38 16h2M27 17h2M38 17h2M21 18h1M16 19h11M17 20h11" />
<path stroke="#b0a28c" d="M25 12h1" />
<path stroke="#030303" d="M26 12h1" />
<path stroke="#ffffff" d="M29 14h1M36 14h1" />
<path stroke="#090907" d="M15 19h1" />
</svg>