<svg xmlns="http://www.w3.org/2000/svg" viewBox="0 -0.5 50 42" shape-rendering="crispEdges">
<metadata>Made with Pixels to Svg https://codepen.io/shshaw/pen/XbxvNj</metadata>
<path stroke="#000000" d="M31 1h4M27 2h12M25 3h16M24 4h5M37 4h6M23 5h4M40 5h4M22 6h3M41 6h4M21 7h3M43 7h3M20 8h4M44 8h3M20 9h3M44 9h3M19 10h3M45 10h3M19 11h3M45 11h3M19 12h2M31 12h6M46 12h3M18 13h3M30 13h9M46 13h3M18 14h3M29 14h5M35 14h6M46 14h3M18 15h3M28 15h3M36 15h5M46 15h3M18 16h2M27 16h3M36 16h4M46 16h3M18 17h2M26 17h3M36 17h4M46 17h3M17 18h3M25 18h4M36 18h3M46 18h3M17 19h3M25 19h3M36 19h3M45 19h3M17 20h3M24 20h3M35 20h3M45 20h3M17 21h2M24 21h3M35 21h3M44 21h3M17 22h2M24 22h2M34 22h3M44 22h3M16 23h3M23 23h3M33 23h4M43 23h3M16 24h3M23 24h3M31 24h6M41 24h4M15 25h3M23 25h4M29 25h16M15 26h3M24 26h9M35 26h8M11 27h7M24 27h7M35 27h7M8 28h9M25 28h4M36 28h4M6 29h8M4 30h10M3 31h8M12 31h1M3 32h8M2 33h9M1 34h4M6 34h2M9 34h1M1 35h4M6 35h1M9 35h1M1 36h3M5 36h3M9 36h1M2 37h2M5 37h3M9 37h1M5 38h1M7 38h3M5 39h1M7 39h3M5 40h1M7 40h1M9 40h1" />
<path stroke="#222222" d="M35 1h1" />
<path stroke="#adadad" d="M39 2h1" />
<path stroke="#424242" d="M41 3h1" />
<path stroke="#707070" d="M25 6h1" />
<path stroke="#919191" d="M18 12h1" />
<path stroke="#464646" d="M28 14h1M17 17h1" />
<path stroke="#c2c2c2" d="M34 14h1" />
<path stroke="#161616" d="M31 15h1" />
<path stroke="#989898" d="M19 21h1" />
<path stroke="#a3a3a3" d="M47 21h1" />
<path stroke="#8b8b8b" d="M16 22h1" />
<path stroke="#636363" d="M23 22h1" />
<path stroke="#0c0c0c" d="M43 22h1" />
<path stroke="#808080" d="M42 23h1" />
<path stroke="#767676" d="M45 24h1" />
<path stroke="#cdcdcd" d="M18 25h1" />
<path stroke="#a2a2a2" d="M27 25h1" />
<path stroke="#3c3c3c" d="M14 26h1" />
<path stroke="#1e1e1e" d="M23 26h1" />
<path stroke="#c5c5c5" d="M43 26h1" />
<path stroke="#8c8c8c" d="M31 27h1" />
<path stroke="#2d2d2d" d="M7 28h1" />
<path stroke="#393939" d="M29 28h1" />
<path stroke="#737373" d="M5 29h1" />
<path stroke="#050505" d="M2 32h1" />
<path stroke="#b4b4b4" d="M10 34h1" />
<path stroke="#787878" d="M5 35h1" />
<path stroke="#4a4a4a" d="M7 35h1" />
<path stroke="#a4a4a4" d="M8 36h1" />
<path stroke="#030303" d="M8 37h1" />
<path stroke="#0f0f0f" d="M4 39h1" />
<path stroke="#131313" d="M8 40h1" />
</svg>